<svg width="115" height="35" viewBox="0 0 115 35" fill="none" xmlns="http://www.w3.org/2000/svg">
<path fill-rule="evenodd" clip-rule="evenodd" d="M71.4717 27.3812C64.843 32.2671 55.2351 34.8739 46.9629 34.8739C35.3639 34.8739 24.9218 30.5838 17.022 23.4486C16.4013 22.8876 16.9574 22.1229 17.7022 22.5598C26.2277 27.5202 36.7691 30.5044 47.658 30.5044C55.0017 30.5044 63.0803 28.985 70.5085 25.832C71.6306 25.3553 72.5691 26.5669 71.4717 27.3812Z" fill="#E6E6E6"/>
<path fill-rule="evenodd" clip-rule="evenodd" d="M74.2276 24.2282C73.3835 23.1458 68.6267 23.7168 66.4916 23.97C65.8412 24.0495 65.7419 23.4834 66.3278 23.0763C70.1163 20.4099 76.3329 21.1795 77.0578 22.0733C77.7827 22.972 76.8691 29.2035 73.309 32.1777C72.7628 32.6345 72.2414 32.3912 72.4847 31.7855C73.2842 29.7894 75.0766 25.3156 74.2276 24.2282Z" fill="#E6E6E6"/>
<path fill-rule="evenodd" clip-rule="evenodd" d="M66.6427 4.25379V1.66189C66.6427 1.26963 66.9406 1.00646 67.2981 1.00646H78.9021C79.2745 1.00646 79.5724 1.27459 79.5724 1.66189V3.88139C79.5675 4.25379 79.2546 4.74039 78.6985 5.51002L72.6855 14.0951C74.9199 14.0405 77.2784 14.3731 79.3043 15.5152C79.7611 15.7733 79.8852 16.1507 79.92 16.5231V19.2888C79.92 19.6662 79.5029 20.1081 79.0659 19.8797C75.4959 18.0077 70.754 17.8042 66.8065 19.8995C66.4044 20.118 65.9823 19.6811 65.9823 19.3037V16.677C65.9823 16.255 65.9873 15.535 66.4093 14.8945L73.3757 4.90425H67.313C66.9406 4.90425 66.6427 4.64109 66.6427 4.25379Z" fill="#E6E6E6"/>
<path fill-rule="evenodd" clip-rule="evenodd" d="M24.3132 20.4259H20.7829C20.4452 20.4011 20.1771 20.1478 20.1523 19.8251V1.70661C20.1523 1.34415 20.4552 1.05615 20.8325 1.05615H24.1245C24.4672 1.07104 24.7402 1.33421 24.7651 1.66192V4.03039H24.8296C25.6886 1.74137 27.3024 0.673823 29.4772 0.673823C31.6867 0.673823 33.0671 1.74137 34.0602 4.03039C34.9142 1.74137 36.8556 0.673823 38.9361 0.673823C40.4158 0.673823 42.0345 1.28456 43.0226 2.65499C44.1398 4.17934 43.9114 6.39388 43.9114 8.33532L43.9064 19.7705C43.9064 20.1329 43.6035 20.4259 43.2262 20.4259H39.7008C39.3482 20.4011 39.0652 20.118 39.0652 19.7705V10.1675C39.0652 9.40287 39.1347 7.49618 38.9659 6.77124C38.7028 5.55474 37.9133 5.21213 36.8904 5.21213C36.0364 5.21213 35.1426 5.78314 34.7801 6.69677C34.4177 7.61039 34.4524 9.1397 34.4524 10.1675V19.7705C34.4524 20.1329 34.1495 20.4259 33.7722 20.4259H30.2468C29.8893 20.4011 29.6112 20.118 29.6112 19.7705L29.6063 10.1675C29.6063 8.14664 29.9389 5.17241 27.4315 5.17241C24.8942 5.17241 24.9935 8.07216 24.9935 10.1675V19.7705C24.9935 20.1329 24.6906 20.4259 24.3132 20.4259Z" fill="#E6E6E6"/>
<path fill-rule="evenodd" clip-rule="evenodd" d="M89.5625 0.673823C94.8009 0.673823 97.6361 5.17241 97.6361 10.8925C97.6361 16.4189 94.503 20.8033 89.5625 20.8033C84.4184 20.8033 81.618 16.3047 81.618 10.6988C81.618 5.05821 84.4532 0.673823 89.5625 0.673823ZM89.5923 4.37299C86.9905 4.37299 86.8266 7.91823 86.8266 10.1278C86.8266 12.3423 86.7919 17.0693 89.5625 17.0693C92.2984 17.0693 92.4275 13.256 92.4275 10.9322C92.4275 9.40287 92.363 7.57563 91.9012 6.12575C91.504 4.86456 90.7145 4.37299 89.5923 4.37299Z" fill="#E6E6E6"/>
<path fill-rule="evenodd" clip-rule="evenodd" d="M104.429 20.4259H100.913C100.561 20.4011 100.278 20.118 100.278 19.7705L100.273 1.64703C100.303 1.31435 100.596 1.05615 100.953 1.05615H104.225C104.533 1.07104 104.786 1.27959 104.856 1.56262V4.33327H104.92C105.909 1.85557 107.294 0.673823 109.732 0.673823C111.316 0.673823 112.86 1.24484 113.853 2.80891C114.777 4.25879 114.777 6.69676 114.777 8.44952V19.8549C114.737 20.1727 114.444 20.4259 114.096 20.4259H110.556C110.233 20.4011 109.965 20.1627 109.93 19.8549V10.0136C109.93 8.03244 110.159 5.13269 107.721 5.13269C106.862 5.13269 106.072 5.70867 105.68 6.58256C105.184 7.68983 105.119 8.79213 105.119 10.0136V19.7705C105.114 20.1329 104.806 20.4259 104.429 20.4259Z" fill="#E6E6E6"/>
<path fill-rule="evenodd" clip-rule="evenodd" d="M57.3923 11.7713C57.3923 13.1467 57.4271 14.2937 56.7319 15.5152C56.1708 16.5082 55.2771 17.119 54.289 17.119C52.9334 17.119 52.139 16.0862 52.139 14.5618C52.139 11.5528 54.8352 11.0066 57.3923 11.0066V11.7713ZM60.9524 20.3762C60.7191 20.5848 60.3814 20.5997 60.1183 20.4606C58.9465 19.4874 58.7329 19.0356 58.0924 18.1071C56.1559 20.0833 54.7805 20.6741 52.2731 20.6741C49.2988 20.6741 46.9899 18.8419 46.9899 15.1726C46.9899 12.3076 48.5391 10.3562 50.7537 9.40284C52.6703 8.55873 55.3466 8.40977 57.3923 8.1764V7.71959C57.3923 6.88045 57.4569 5.88738 56.9603 5.16245C56.5333 4.51199 55.7091 4.24386 54.9792 4.24386C53.6336 4.24386 52.4369 4.93404 52.144 6.36405C52.0844 6.68184 51.851 6.99465 51.5283 7.00955L48.1071 6.64211C47.8192 6.57757 47.4964 6.34419 47.5808 5.90228C48.3653 1.75127 52.1191 0.5 55.4757 0.5C57.1937 0.5 59.438 0.956811 60.7936 2.25773C62.5116 3.86153 62.3477 6.00159 62.3477 8.33033V13.8319C62.3477 15.4854 63.0329 16.2103 63.6784 17.1041C63.9019 17.4218 63.9515 17.8042 63.6635 18.0425C62.9435 18.6433 61.6625 19.7605 60.9574 20.3861L60.9524 20.3762Z" fill="#E6E6E6"/>
<path fill-rule="evenodd" clip-rule="evenodd" d="M11.1104 11.7713C11.1104 13.1467 11.1451 14.2937 10.45 15.5151C9.88889 16.5082 9.0001 17.1189 8.00704 17.1189C6.6515 17.1189 5.86202 16.0862 5.86202 14.5618C5.86202 11.5528 8.55819 11.0066 11.1104 11.0066V11.7713ZM14.6705 20.3762C14.4371 20.5847 14.0995 20.5996 13.8363 20.4606C12.6645 19.4874 12.456 19.0356 11.8105 18.107C9.874 20.0832 8.50357 20.6741 5.99111 20.6741C3.02185 20.6741 0.708008 18.8419 0.708008 15.1725C0.708008 12.3075 2.26215 10.3562 4.47172 9.40283C6.38834 8.55872 9.06465 8.40977 11.1104 8.1764V7.71959C11.1104 6.88044 11.1749 5.88738 10.6833 5.16244C10.2514 4.51198 9.42712 4.24386 8.70218 4.24386C7.35658 4.24386 6.15497 4.93404 5.86202 6.36405C5.80243 6.68183 5.56906 6.99465 5.25128 7.00954L1.82521 6.64211C1.53722 6.57756 1.21944 6.34419 1.29888 5.90228C2.08837 1.75127 5.83719 0.5 9.19375 0.5C10.9118 0.5 13.1561 0.956811 14.5116 2.25773C16.2296 3.86153 16.0658 6.00158 16.0658 8.33032V13.8319C16.0658 15.4854 16.751 16.2103 17.3965 17.1041C17.6249 17.4218 17.6745 17.8042 17.3865 18.0425C16.6666 18.6433 15.3855 19.7605 14.6804 20.3861L14.6705 20.3762Z" fill="#E6E6E6"/>
</svg>
