<svg width="127" height="32" viewBox="0 0 127 32" fill="none" xmlns="http://www.w3.org/2000/svg">
<path d="M40.1509 24.7806L41.6802 21.2061C43.3546 22.4462 45.5387 23.1025 47.7232 23.1025C49.3251 23.1025 50.3443 22.4827 50.3443 21.5345C50.3077 18.9083 40.697 20.9508 40.624 14.3481C40.5874 10.9924 43.5729 8.40271 47.7963 8.40271C50.3077 8.40271 52.8202 9.02299 54.6037 10.4458L53.1747 14.0964C51.5337 13.0412 49.5068 12.3056 47.5775 12.3056C46.267 12.3056 45.393 12.9253 45.393 13.7283C45.4295 16.318 55.1138 14.8953 55.223 21.2061C55.223 24.6349 52.31 27.0424 48.1597 27.0424C45.1022 27.0424 42.2989 26.313 40.1504 24.7806H40.1509ZM101.045 19.9118C100.659 20.5977 100.097 21.1685 99.4178 21.5658C98.7384 21.9631 97.9655 22.1725 97.1784 22.1726C94.7255 22.1726 92.7373 20.1802 92.7373 17.7226C92.7373 15.2649 94.7255 13.2725 97.1784 13.2725C97.9655 13.2726 98.7384 13.482 99.4178 13.8793C100.097 14.2766 100.659 14.8474 101.045 15.5333L105.296 13.1733C103.704 10.3272 100.666 8.40271 97.1784 8.40271C92.0413 8.40271 87.8769 12.575 87.8769 17.7226C87.8769 22.8696 92.0413 27.0424 97.1784 27.0424C100.666 27.0424 103.704 25.1179 105.296 22.2718L101.045 19.9118ZM57.9818 26.6774H63.297V0.644531H57.9824L57.9818 26.6774ZM107.981 0.644531V26.6774H113.296V18.878L119.594 26.6774H126.388L118.379 17.4119L125.805 8.76611H119.303L113.296 15.9541V0.644531H107.981ZM79.6723 8.76715V10.8833C78.7988 9.42398 76.6508 8.40271 74.3936 8.40271C69.7337 8.40271 66.0569 12.5248 66.0569 17.7043C66.0569 22.8837 69.7337 27.0424 74.3936 27.0424C76.6508 27.0424 78.7988 26.0211 79.6723 24.5618V26.6774H84.9875V8.76715H79.6723ZM79.6723 19.9478C78.9079 21.2244 77.306 22.1721 75.5225 22.1721C73.069 22.1721 71.0808 20.1802 71.0808 17.7226C71.0808 15.2649 73.069 13.2725 75.5225 13.2725C77.306 13.2725 78.9079 14.2572 79.6723 15.5699V19.9478Z" fill="#E6E6E6"/>
<path d="M12.082 0.0664062C10.3595 0.0664062 8.96334 1.46569 8.96334 3.19129C8.96292 3.60125 9.04326 4.00727 9.19977 4.38618C9.35627 4.76508 9.58587 5.10945 9.87546 5.39963C10.1651 5.6898 10.509 5.92009 10.8876 6.07735C11.2661 6.23462 11.672 6.31577 12.082 6.31618H15.2011V3.19129C15.2018 2.3633 14.8736 1.56895 14.2886 0.98293C13.7037 0.396915 12.9099 0.0672367 12.082 0.0664062ZM12.082 8.39944H3.76511C2.04263 8.39944 0.646484 9.79872 0.646484 11.5248C0.646484 13.2505 2.04263 14.6497 3.76511 14.6497H12.0825C13.8044 14.6497 15.2011 13.2505 15.2011 11.5248C15.2011 9.79872 13.8044 8.39944 12.082 8.39944Z" fill="#E6E6E6"/>
<path d="M31.8339 11.5248C31.8339 9.79872 30.4372 8.39944 28.7148 8.39944C26.9923 8.39944 25.5961 9.79872 25.5961 11.5248V14.6497H28.7148C29.5428 14.6489 30.3365 14.3192 30.9215 13.7332C31.5064 13.1472 31.8346 12.3528 31.8339 11.5248ZM23.5171 11.5248V3.19129C23.5178 2.3633 23.1895 1.56894 22.6046 0.98293C22.0197 0.396915 21.2259 0.0672367 20.3979 0.0664062C18.6754 0.0664063 17.2793 1.46569 17.2793 3.19129V11.5243C17.2793 13.251 18.6754 14.6503 20.3979 14.6503C21.2259 14.6494 22.0197 14.3197 22.6046 13.7337C23.1895 13.1477 23.5178 12.3534 23.5171 11.5254" fill="#E6E6E6"/>
<path d="M20.3979 31.3177C21.2259 31.3169 22.0197 30.9872 22.6046 30.4012C23.1895 29.8152 23.5178 29.0208 23.5171 28.1928C23.5178 27.3648 23.1895 26.5705 22.6046 25.9844C22.0197 25.3984 21.2259 25.0687 20.3979 25.0679H17.2793V28.1928C17.2793 29.9184 18.6754 31.3177 20.3979 31.3177ZM20.3979 22.9847H28.7153C30.4372 22.9847 31.8339 21.5854 31.8339 19.8592C31.8346 19.0313 31.5064 18.2369 30.9215 17.6509C30.3365 17.0649 29.5428 16.7352 28.7148 16.7344H20.3979C18.6754 16.7344 17.2793 18.1336 17.2793 19.8592C17.2789 20.2692 17.3592 20.6752 17.5157 21.0541C17.6722 21.433 17.9018 21.7774 18.1914 22.0676C18.481 22.3578 18.8249 22.588 19.2035 22.7453C19.5821 22.9026 19.988 22.9837 20.3979 22.9841" fill="#E6E6E6"/>
<path d="M0.646486 19.8592C0.646074 20.2692 0.726413 20.6752 0.882916 21.0541C1.03942 21.433 1.26902 21.7774 1.55861 22.0676C1.8482 22.3578 2.19211 22.588 2.5707 22.7453C2.94929 22.9026 3.35515 22.9837 3.76511 22.9841C4.5931 22.9833 5.38685 22.6536 5.97179 22.0676C6.55673 21.4816 6.88495 20.6872 6.88425 19.8592V16.7344H3.76511C2.04263 16.7344 0.646486 18.1336 0.646486 19.8592ZM8.96334 19.8592V28.1923C8.96334 29.9184 10.3595 31.3177 12.082 31.3177C12.9099 31.3169 13.7037 30.9872 14.2886 30.4012C14.8736 29.8152 15.2018 29.0208 15.2011 28.1928V19.8592C15.2015 19.4492 15.1212 19.0432 14.9646 18.6642C14.8081 18.2853 14.5784 17.9409 14.2888 17.6507C13.9991 17.3606 13.6552 17.1303 13.2765 16.973C12.8979 16.8158 12.492 16.7347 12.082 16.7344C10.3595 16.7344 8.96334 18.1336 8.96334 19.8592Z" fill="#E6E6E6"/>
</svg>
