<svg width="110" height="22" viewBox="0 0 110 22" fill="none" xmlns="http://www.w3.org/2000/svg">
<path d="M20.9697 4.31055C22.1903 4.31055 23.254 4.58303 24.1475 5.08691V4.64551H28.0889V20.5547H24.1475V16.333C23.255 16.8268 22.192 17.0996 20.9697 17.0996C17.8532 17.0995 15.0099 14.4813 15.0098 10.7168C15.0098 6.95476 17.8506 4.31064 20.9697 4.31055ZM103.262 4.31055C106.381 4.31055 109.222 6.95469 109.222 10.7168C109.222 14.4813 106.378 17.0996 103.262 17.0996C102.04 17.0996 100.977 16.8266 100.085 16.333V20.5547H96.1426V4.64551H100.085V5.08691C100.978 4.58325 102.041 4.31056 103.262 4.31055ZM7.60645 0.5C10.828 0.5 13.3625 2.27215 14.001 5.19434L14.1094 5.68848L13.6133 5.79102L10.582 6.41504L10.0703 6.52051L9.98828 6.00391C9.81027 4.88243 8.8297 4.10746 7.54004 4.10742C6.19516 4.10742 5.61042 4.82531 5.61035 5.45703C5.61035 5.76314 5.67714 5.94977 5.7959 6.08301C5.92243 6.22493 6.17458 6.38072 6.69824 6.48145L6.70312 6.48242L9.91211 7.12891L9.91602 7.12988C11.1998 7.40077 12.2834 7.92879 13.0488 8.73828C13.8213 9.55542 14.2353 10.6233 14.2354 11.8975C14.2354 13.4976 13.5699 14.8191 12.4082 15.7285C11.2587 16.6284 9.65856 17.0996 7.80762 17.0996C6.17661 17.0996 4.60922 16.7223 3.38574 15.9209C2.15013 15.1115 1.2806 13.8774 1.07129 12.2285L1.0127 11.7676L1.46777 11.6748L4.65527 11.0293L5.12891 10.9326L5.24121 11.4033C5.41713 12.1461 5.76584 12.6408 6.22461 12.957C6.69159 13.2789 7.31875 13.4482 8.09668 13.4482C8.89231 13.4482 9.43791 13.259 9.77148 13.0049C10.0933 12.7595 10.249 12.4324 10.249 12.0537C10.249 11.7135 10.171 11.5207 10.0273 11.377C9.86363 11.2133 9.54627 11.0443 8.91699 10.918L5.75293 10.3164L5.74219 10.3145C4.81469 10.1174 3.73865 9.75311 2.88867 9.01562C2.0185 8.26047 1.42383 7.14605 1.42383 5.5459C1.42393 4.06138 2.036 2.78165 3.1377 1.88281C4.23085 0.991091 5.77196 0.500065 7.60645 0.5ZM33.7432 4.64551V11.2959C33.7432 11.9833 33.9395 12.5108 34.2383 12.8584C34.531 13.1989 34.9522 13.4033 35.4941 13.4033C36.2095 13.4033 36.7403 13.1716 37.1084 12.6992C37.4936 12.2048 37.7578 11.3751 37.7578 10.0703V4.64551H41.6992V16.7656H37.7578V16.2979C36.9215 16.8258 35.9195 17.0996 34.7588 17.0996C33.297 17.0996 32.0469 16.573 31.1641 15.6396C30.2836 14.7089 29.8018 13.4098 29.8018 11.9199V4.64551H33.7432ZM48.8926 4.31055C50.1128 4.31059 51.176 4.58322 52.0693 5.08691V4.64551H56.0107V16.7656H52.0693V16.333C51.1771 16.8266 50.1145 17.0996 48.8926 17.0996C45.776 17.0996 42.9327 14.4813 42.9326 10.7168C42.9326 6.95469 45.7734 4.31055 48.8926 4.31055ZM84.1963 0.833984V9.58008C84.1963 10.7371 84.5216 11.6427 85.0449 12.251C85.5621 12.852 86.3063 13.2031 87.2402 13.2031C88.1091 13.203 88.813 12.8591 89.3086 12.2588C89.8112 11.6498 90.1269 10.7408 90.127 9.58008V0.833984H94.1582V9.58008C94.1582 11.776 93.4857 13.6587 92.2646 14.998C91.0398 16.3415 89.2967 17.0995 87.2402 17.0996C85.1431 17.0996 83.3622 16.3446 82.1084 15.0029C80.8574 13.6641 80.1651 11.7796 80.165 9.58008V0.833984H84.1963ZM65.5527 4.48926C65.8366 4.48926 66.1369 4.48546 66.4912 4.60352L66.8535 4.72461L66.832 5.10547L66.6768 7.93652L66.6504 8.4082H65.5312C64.2794 8.4082 63.4487 8.78838 62.916 9.44629C62.367 10.1245 62.0645 11.1831 62.0645 12.6777V16.7656H58.1221V4.64551H62.0645V5.83301C62.9557 5.01377 64.1055 4.48936 65.5527 4.48926ZM21.4824 7.87402C20.7155 7.87403 20.0694 8.14968 19.6143 8.62305C19.1587 9.09685 18.8623 9.80253 18.8623 10.7168C18.8624 11.6308 19.1582 12.3301 19.6123 12.7979C20.0664 13.2655 20.7129 13.5371 21.4824 13.5371C22.8044 13.5371 24.1473 12.4752 24.1475 10.7168C24.1475 8.95378 22.7998 7.87402 21.4824 7.87402ZM49.4053 7.87402C48.6384 7.87402 47.9923 8.14972 47.5371 8.62305C47.0815 9.09685 46.7852 9.80244 46.7852 10.7168C46.7852 11.6308 47.0811 12.3301 47.5352 12.7979C47.9893 13.2654 48.6359 13.5371 49.4053 13.5371C50.7271 13.5369 52.0692 12.475 52.0693 10.7168C52.0693 8.95395 50.7226 7.87423 49.4053 7.87402ZM102.749 7.87402C101.432 7.87414 100.085 8.95388 100.085 10.7168C100.085 12.4751 101.427 13.537 102.749 13.5371C103.518 13.5371 104.165 13.2655 104.619 12.7979C105.073 12.3301 105.369 11.6308 105.369 10.7168C105.369 9.80245 105.073 9.09685 104.617 8.62305C104.162 8.14967 103.516 7.87402 102.749 7.87402ZM72.9258 7.87402C72.1813 7.87406 71.385 8.22742 70.9414 8.92383H74.8223C74.6648 8.6423 74.4681 8.428 74.249 8.26953C73.8853 8.00656 73.429 7.87402 72.9258 7.87402ZM79.0645 11.9961H70.75C71.1341 13.0241 71.9615 13.5818 72.8809 13.582C73.2989 13.582 73.7097 13.5532 74.0986 13.3936C74.474 13.2394 74.865 12.9476 75.2139 12.3564L75.3965 12.0469L75.748 12.1221L78.3779 12.6787L78.9707 12.8047L78.7354 13.3633C77.6665 15.8895 75.4838 17.0996 72.8809 17.0996C69.4627 17.0994 66.6759 14.4915 66.6758 10.7168C66.6758 6.94184 69.4628 4.3106 72.9258 4.31055C76.162 4.31055 78.9433 6.82299 79.0635 10.4775L79.0645 10.4854V11.9961Z" fill="white" stroke="black"/>
</svg>
